HIERARCHY
ROOT hip
{
  OFFSET 0 0 0
  CHANNELS 6 Xposition Yposition Zposition Zrotation Yrotation Xrotation
  JOINT abdomen
  {
    OFFSET 0 20.6881 -0.73152
    CHANNELS 3 Zrotation Xrotation Yrotation
    JOINT chest
    {
      OFFSET 0 11.7043 -0.48768
      CHANNELS 3 Zrotation Xrotation Yrotation
      JOINT neck
      {
        OFFSET 0 22.1894 -2.19456
        CHANNELS 3 Zrotation Xrotation Yrotation
        JOINT head
        {
          OFFSET -0.24384 7.07133 1.2192
          CHANNELS 3 Zrotation Xrotation Yrotation
          JOINT leftEye
          {
            OFFSET 4.14528 8.04674 8.04672
            CHANNELS 3 Zrotation Xrotation Yrotation
            End Site
            {
              OFFSET 1 0 0
            }
          }
          JOINT rightEye
          {
            OFFSET -3.6576 8.04674 8.04672
            CHANNELS 3 Zrotation Xrotation Yrotation
            End Site
            {
              OFFSET 1 0 0
            }
          }
        }
      }
      JOINT rCollar
      {
        OFFSET -2.68224 19.2634 -4.8768
        CHANNELS 3 Zrotation Xrotation Yrotation
        JOINT rShldr
        {
          OFFSET -8.77824 -1.95073 1.46304
          CHANNELS 3 Zrotation Xrotation Yrotation
          JOINT rForeArm
          {
            OFFSET -28.1742 -1.7115 0.48768
            CHANNELS 3 Zrotation Xrotation Yrotation
            JOINT rHand
            {
              OFFSET -22.5879 0.773209 7.07136
              CHANNELS 3 Zrotation Xrotation Yrotation
              JOINT rThumb1
              {
                OFFSET -1.2192 -0.487915 3.41376
                CHANNELS 3 Zrotation Xrotation Yrotation
                JOINT rThumb2
                {
                  OFFSET -3.37035 -0.52449 3.41376
                  CHANNELS 3 Zrotation Xrotation Yrotation
                  End Site
                  {
                    OFFSET -1.78271 -1.18214 1.43049
                  }
                }
              }
              JOINT rIndex1
              {
                OFFSET -7.75947 0.938293 5.60832
                CHANNELS 3 Zrotation Xrotation Yrotation
                JOINT rIndex2
                {
                  OFFSET -2.54057 -0.884171 1.56538
                  CHANNELS 3 Zrotation Xrotation Yrotation
                  End Site
                  {
                    OFFSET -1.62519 -0.234802 1.16502
                  }
                }
              }
              JOINT rMid1
              {
                OFFSET -8.24714 1.18213 3.41376
                CHANNELS 3 Zrotation Xrotation Yrotation
                JOINT rMid2
                {
                  OFFSET -3.10165 -0.590103 1.0647
                  CHANNELS 3 Zrotation Xrotation Yrotation
                  End Site
                  {
                    OFFSET -2.48547 -0.328903 0.83742
                  }
                }
              }
              JOINT rRing1
              {
                OFFSET -8.82822 0.546677 1.51678
                CHANNELS 3 Zrotation Xrotation Yrotation
                JOINT rRing2
                {
                  OFFSET -2.60934 -0.819778 -0.0198488
                  CHANNELS 3 Zrotation Xrotation Yrotation
                  End Site
                  {
                    OFFSET -2.33842 -0.294052 0.168128
                  }
                }
              }
              JOINT rPinky1
              {
                OFFSET -8.27202 -0.0477905 -0.4584
                CHANNELS 3 Zrotation Xrotation Yrotation
                JOINT rPinky2
                {
                  OFFSET -1.82734 -0.647385 -0.700984
                  CHANNELS 3 Zrotation Xrotation Yrotation
                  End Site
                  {
                    OFFSET -1.69225 -0.51767 -0.607171
                  }
                }
              }
            }
          }
        }
      }
      JOINT lCollar
      {
        OFFSET 2.68224 19.2634 -4.8768
        CHANNELS 3 Zrotation Xrotation Yrotation
        JOINT lShldr
        {
          OFFSET 8.77824 -1.95073 1.46304
          CHANNELS 3 Zrotation Xrotation Yrotation
          JOINT lForeArm
          {
            OFFSET 28.1742 -1.7115 0.48768
            CHANNELS 3 Zrotation Xrotation Yrotation
            JOINT lHand
            {
              OFFSET 22.5879 0.773209 7.07136
              CHANNELS 3 Zrotation Xrotation Yrotation
              JOINT lThumb1
              {
                OFFSET 1.2192 -0.487915 3.41376
                CHANNELS 3 Zrotation Xrotation Yrotation
                JOINT lThumb2
                {
                  OFFSET 3.37035 -0.52449 3.41376
                  CHANNELS 3 Zrotation Xrotation Yrotation
                  End Site
                  {
                    OFFSET 1.78271 -1.18214 1.43049
                  }
                }
              }
              JOINT lIndex1
              {
                OFFSET 7.75947 0.938293 5.60832
                CHANNELS 3 Zrotation Xrotation Yrotation
                JOINT lIndex2
                {
                  OFFSET 2.54057 -0.884171 1.56538
                  CHANNELS 3 Zrotation Xrotation Yrotation
                  End Site
                  {
                    OFFSET 1.62519 -0.234802 1.16502
                  }
                }
              }
              JOINT lMid1
              {
                OFFSET 8.24714 1.18213 3.41376
                CHANNELS 3 Zrotation Xrotation Yrotation
                JOINT lMid2
                {
                  OFFSET 3.10165 -0.590103 1.0647
                  CHANNELS 3 Zrotation Xrotation Yrotation
                  End Site
                  {
                    OFFSET 2.48547 -0.328903 0.83742
                  }
                }
              }
              JOINT lRing1
              {
                OFFSET 8.82822 0.546677 1.51678
                CHANNELS 3 Zrotation Xrotation Yrotation
                JOINT lRing2
                {
                  OFFSET 2.60934 -0.819778 -0.0198488
                  CHANNELS 3 Zrotation Xrotation Yrotation
                  End Site
                  {
                    OFFSET 2.33842 -0.294052 0.168128
                  }
                }
              }
              JOINT lPinky1
              {
                OFFSET 8.27202 -0.0477905 -0.4584
                CHANNELS 3 Zrotation Xrotation Yrotation
                JOINT lPinky2
                {
                  OFFSET 1.82734 -0.647385 -0.700984
                  CHANNELS 3 Zrotation Xrotation Yrotation
                  End Site
                  {
                    OFFSET 1.69225 -0.51767 -0.607171
                  }
                }
              }
            }
          }
        }
      }
    }
  }
  JOINT rButtock
  {
    OFFSET -8.77824 4.35084 1.2192
    CHANNELS 3 Zrotation Xrotation Yrotation
    JOINT rThigh
    {
      OFFSET 0 -1.70687 -2.19456
      CHANNELS 3 Zrotation Xrotation Yrotation
      JOINT rShin
      {
        OFFSET 0 -36.8199 0.73152
        CHANNELS 3 Zrotation Xrotation Yrotation
        JOINT rFoot
        {
          OFFSET 0.73152 -45.1104 -5.12064
          CHANNELS 3 Zrotation Xrotation Yrotation
          End Site
          {
            OFFSET -1.1221 -3.69964 12.103
          }
        }
      }
    }
  }
  JOINT lButtock
  {
    OFFSET 8.77824 4.35084 1.2192
    CHANNELS 3 Zrotation Xrotation Yrotation
    JOINT lThigh
    {
      OFFSET 0 -1.70687 -2.19456
      CHANNELS 3 Zrotation Xrotation Yrotation
      JOINT lShin
      {
        OFFSET 0 -36.8199 0.73152
        CHANNELS 3 Zrotation Xrotation Yrotation
        JOINT lFoot
        {
          OFFSET -0.73152 -45.1104 -5.12064
          CHANNELS 3 Zrotation Xrotation Yrotation
          End Site
          {
            OFFSET 1.1221 -3.69964 12.103
          }
        }
      }
    }
  }
}
MOTION
Frames:	4
Frame Time:	0.00833333
1.96315 81.9333 -42.4718 1.2468 -4.9554 19.2507 -3.62104 -17.3416 0.708959 0.488928 4.18031 0.325458 -3.01968 8.01252 -0.896706 0.297112 -18.9029 -1.30128 -0.0 0.0 0.0 -0.0 0.0 0.0 -1.05676e-14 -3.50726e-14 6.43864e-14 118.845 58.0901 -76.8833 -28.198 -39.1997 82.4994 -14.4302 -68.6078 -21.0242 6.38363e-11 -1.23049e-10 -3.39776e-10 1.29571e-10 -2.14752e-10 -5.7466e-10 6.38375e-11 -1.23044e-10 -3.3981e-10 7.73091 5.47488 0.417314 6.38355e-11 -1.23049e-10 -3.3978e-10 2.90554 0.965183 0.102902 6.38455e-11 -1.23049e-10 -3.39779e-10 10.2786 0.731801 0.0259123 6.38348e-11 -1.23049e-10 -3.39776e-10 2.22167 -0.733487 -0.20892 -1.06246e-14 -3.50739e-14 6.42036e-14 24.8004 -51.6854 28.1319 9.09633 -3.60568 -16.1159 1.49157 32.4377 -5.12449 -5.69154e-10 1.1607e-10 1.30239e-10 -9.80396e-10 2.01331e-10 2.38537e-10 -5.69159e-10 1.16067e-10 1.30244e-10 -7.73091 5.47488 -0.417314 -5.69154e-10 1.16067e-10 1.30241e-10 -2.90554 0.965183 -0.102902 -5.69157e-10 1.16066e-10 1.30237e-10 -10.2786 0.731801 -0.0259123 -5.69149e-10 1.16069e-10 1.30229e-10 -2.22167 -0.733487 0.20892 -2.03217e-16 0.0 -3.88251e-19 -5.88779 -36.0958 -8.31072 -0.267176 35.6909 0.587841 1.32326 -21.3081 3.83748 2.03217e-16 0.0 3.88251e-19 0.904293 -35.7588 8.78804 0.214617 35.3785 -0.638363 2.85427 -16.3839 6.77051
1.98169 81.9351 -42.4702 1.3687 -5.082 19.2419 -3.65221 -17.465 0.684544 0.299454 4.52165 0.327396 -2.87449 8.11738 -0.895485 0.252373 -19.2538 -1.33147 -0.0 0.0 0.0 -0.0 0.0 0.0 2.52737e-14 -1.32588e-13 3.48277e-14 118.756 58.3029 -76.5618 -28.2012 -39.1764 82.4581 -14.474 -68.6492 -21.0712 1.58088e-10 -3.05656e-10 -1.05056e-10 2.76257e-10 -4.96252e-10 -1.68151e-10 1.58089e-10 -3.05652e-10 -1.05086e-10 7.73091 5.47488 0.417314 1.58087e-10 -3.05657e-10 -1.05061e-10 2.90554 0.965183 0.102902 1.58095e-10 -3.05658e-10 -1.05059e-10 10.2786 0.731801 0.0259123 1.58085e-10 -3.05657e-10 -1.05055e-10 2.22167 -0.733487 -0.20892 2.52007e-14 -1.32591e-13 3.46631e-14 25.2097 -52.0165 28.4297 9.09721 -3.60771 -16.118 1.50658 32.5781 -5.15236 3.0124e-10 -1.53545e-10 -1.81127e-11 5.16978e-10 -2.6568e-10 -3.94532e-11 3.01233e-10 -1.53545e-10 -1.81013e-11 -7.73091 5.47488 -0.417314 3.0124e-10 -1.53546e-10 -1.81093e-11 -2.90554 0.965183 -0.102902 3.01235e-10 -1.53547e-10 -1.81143e-11 -10.2786 0.731801 -0.0259123 3.01243e-10 -1.53546e-10 -1.81218e-11 -2.22167 -0.733487 0.20892 -2.03217e-16 0.0 -3.88251e-19 -6.03039 -36.1023 -8.40632 -0.265645 35.7187 0.586466 1.40737 -21.3265 4.01975 2.03217e-16 0.0 3.88251e-19 0.813517 -35.7057 8.81602 0.213966 35.3214 -0.63737 2.8606 -16.3735 6.79717
2.00189 81.937 -42.4671 1.4863 -5.1577 19.2262 -3.66643 -17.5916 0.663083 0.1104 4.85042 0.329558 -2.74339 8.25578 -0.899313 0.216288 -19.6301 -1.37022 -0.0 0.0 0.0 -0.0 0.0 0.0 6.09555e-14 -2.3895e-13 -7.83375e-15 118.671 58.5017 -76.2515 -28.2041 -39.1544 82.4195 -14.5017 -68.6754 -21.101 2.73375e-10 -5.09081e-10 1.67625e-10 4.56853e-10 -8.14479e-10 3.03958e-10 2.73376e-10 -5.09079e-10 1.67599e-10 7.73091 5.47488 0.417314 2.73375e-10 -5.09083e-10 1.67619e-10 2.90554 0.965183 0.102902 2.7338e-10 -5.09084e-10 1.67622e-10 10.2786 0.731801 0.0259123 2.73372e-10 -5.09082e-10 1.67627e-10 2.22167 -0.733487 -0.20892 6.08717e-14 -2.38954e-13 -7.98478e-15 25.5699 -52.278 28.6876 9.10044 -3.61123 -16.1246 1.51631 32.6686 -5.17039 1.19642e-09 -4.35507e-10 -2.48277e-10 2.0552e-09 -7.53714e-10 -4.5908e-10 1.19641e-09 -4.35504e-10 -2.48258e-10 -7.73091 5.47488 -0.417314 1.19642e-09 -4.35507e-10 -2.48272e-10 -2.90554 0.965183 -0.102902 1.19641e-09 -4.35508e-10 -2.48277e-10 -10.2786 0.731801 -0.0259123 1.19642e-09 -4.35508e-10 -2.48285e-10 -2.22167 -0.733487 0.20892 -2.03217e-16 0.0 -3.88251e-19 -6.16808 -36.1062 -8.51902 -0.264506 35.7417 0.584917 1.49521 -21.3445 4.21021 2.03217e-16 0.0 3.88251e-19 0.735989 -35.6575 8.84811 0.213068 35.272 -0.63653 2.86548 -16.3684 6.81826
1.99065 81.9373 -42.4666 1.4617 -5.1735 19.2204 -3.65861 -17.6737 0.664134 -0.0252741 5.07647 0.334968 -2.66075 8.35228 -0.900754 0.203989 -19.9022 -1.39136 -0.0 0.0 0.0 -0.0 0.0 0.0 8.14453e-14 -3.22029e-13 -4.91992e-14 118.607 58.6301 -76.0281 -28.2055 -39.1442 82.4015 -14.5001 -68.6739 -21.0992 3.63113e-10 -6.48448e-10 3.89736e-10 5.9714e-10 -1.03619e-09 6.87756e-10 3.63116e-10 -6.48446e-10 3.89713e-10 7.73091 5.47488 0.417314 3.63112e-10 -6.48451e-10 3.89729e-10 2.90554 0.965183 0.102902 3.63118e-10 -6.48451e-10 3.89732e-10 10.2786 0.731801 0.0259123 3.6311e-10 -6.48449e-10 3.89739e-10 2.22167 -0.733487 -0.20892 8.13647e-14 -3.22033e-13 -4.93483e-14 25.7518 -52.368 28.8026 9.10623 -3.61567 -16.1357 1.51462 32.6538 -5.16739 1.76892e-09 -6.13499e-10 -4.42345e-10 3.03799e-09 -1.06169e-09 -8.08063e-10 1.76891e-09 -6.13494e-10 -4.42323e-10 -7.73091 5.47488 -0.417314 1.76892e-09 -6.13498e-10 -4.42339e-10 -2.90554 0.965183 -0.102902 1.76891e-09 -6.13499e-10 -4.42344e-10 -10.2786 0.731801 -0.0259123 1.76892e-09 -6.13499e-10 -4.42352e-10 -2.22167 -0.733487 0.20892 -2.03217e-16 0.0 -3.88251e-19 -6.24575 -36.1093 -8.58322 -0.264798 35.7532 0.583694 1.55844 -21.3535 4.34802 2.03217e-16 0.0 3.88251e-19 0.703826 -35.6215 8.89453 0.211539 35.2403 -0.636037 2.86927 -16.3656 6.83221
